<svg width="57" height="44" viewBox="0 0 57 44" fill="none" xmlns="http://www.w3.org/2000/svg">
<g clip-path="url(#clip0_59_33)">
<path d="M23.3333 29H33.6666" stroke="black" stroke-width="2" stroke-linecap="round" stroke-linejoin="round"/>
<path d="M28.5 14V28.6667" stroke="black" stroke-width="2" stroke-linecap="round" stroke-linejoin="round"/>
<path d="M38 1L28.5 14L19 1H38Z" stroke="black" stroke-width="2" stroke-linecap="round" stroke-linejoin="round"/>
</g>
<path d="M20.8193 43V42.3848L21.6152 42.248V36.6475L20.8193 36.5107V35.8906H21.6152H23.8857C24.6279 35.8906 25.2074 36.0518 25.624 36.374C26.0439 36.693 26.2539 37.1732 26.2539 37.8145C26.2539 38.1302 26.153 38.4134 25.9512 38.6641C25.7526 38.9115 25.4889 39.0954 25.1602 39.2158C25.4466 39.2744 25.6924 39.39 25.8975 39.5625C26.1025 39.7318 26.2604 39.9401 26.3711 40.1875C26.485 40.4316 26.542 40.7002 26.542 40.9932C26.542 41.6442 26.3304 42.1423 25.9072 42.4873C25.484 42.8291 24.9111 43 24.1885 43H20.8193ZM22.5771 42.248H24.1885C24.6279 42.248 24.9681 42.1406 25.209 41.9258C25.4531 41.7077 25.5752 41.4001 25.5752 41.0029C25.5752 40.723 25.5296 40.4837 25.4385 40.2852C25.3506 40.0866 25.2139 39.9336 25.0283 39.8262C24.846 39.7188 24.6149 39.665 24.335 39.665H22.5771V42.248ZM22.5771 38.9131H24.1348C24.4798 38.9131 24.7581 38.8138 24.9697 38.6152C25.1846 38.4134 25.292 38.14 25.292 37.7949C25.292 37.4108 25.1715 37.1243 24.9307 36.9355C24.6898 36.7435 24.3415 36.6475 23.8857 36.6475H22.5771V38.9131ZM28.9492 43.1025C28.3991 43.1025 27.9808 42.9691 27.6943 42.7021C27.4079 42.432 27.2646 42.0527 27.2646 41.5645C27.2646 41.2292 27.3558 40.9378 27.5381 40.6904C27.7236 40.4398 27.9906 40.2461 28.3389 40.1094C28.6872 39.9694 29.1038 39.8994 29.5889 39.8994H30.5312V39.3818C30.5312 39.0628 30.4336 38.8154 30.2383 38.6396C30.0462 38.4639 29.7744 38.376 29.4229 38.376C29.2015 38.376 29.0094 38.4036 28.8467 38.459C28.6839 38.5111 28.5358 38.5843 28.4023 38.6787L28.2998 39.416H27.5576V38.2051C27.7952 38.013 28.0719 37.8682 28.3877 37.7705C28.7035 37.6696 29.0534 37.6191 29.4375 37.6191C30.0788 37.6191 30.5817 37.7721 30.9463 38.0781C31.3109 38.3841 31.4932 38.8219 31.4932 39.3916V41.9355C31.4932 42.0039 31.4932 42.0706 31.4932 42.1357C31.4964 42.2008 31.5013 42.266 31.5078 42.3311L32.0205 42.3848V43H30.6387C30.6094 42.8568 30.5866 42.7282 30.5703 42.6143C30.554 42.5003 30.5426 42.3864 30.5361 42.2725C30.3506 42.5101 30.1178 42.7087 29.8379 42.8682C29.5612 43.0244 29.265 43.1025 28.9492 43.1025ZM29.0908 42.2969C29.4098 42.2969 29.7012 42.2204 29.9648 42.0674C30.2285 41.9144 30.4173 41.7305 30.5312 41.5156V40.5586H29.5547C29.112 40.5586 28.7799 40.6644 28.5586 40.876C28.3372 41.0876 28.2266 41.3236 28.2266 41.584C28.2266 41.8151 28.2982 41.9925 28.4414 42.1162C28.5846 42.2367 28.8011 42.2969 29.0908 42.2969ZM32.7578 43V42.3848L33.5537 42.248V38.4736L32.7578 38.3369V37.7168H34.4131L34.4961 38.3906L34.5059 38.4834C34.6556 38.2132 34.8395 38.0016 35.0576 37.8486C35.279 37.6956 35.5312 37.6191 35.8145 37.6191C35.9154 37.6191 36.0179 37.6289 36.1221 37.6484C36.2295 37.6647 36.306 37.681 36.3516 37.6973L36.2246 38.5908L35.5557 38.5518C35.3018 38.5355 35.0885 38.5941 34.916 38.7275C34.7435 38.8577 34.61 39.0335 34.5156 39.2549V42.248L35.3115 42.3848V43H32.7578Z" fill="black"/>
<defs>
<clipPath id="clip0_59_33">
<rect width="31" height="32" fill="white" transform="translate(13)"/>
</clipPath>
</defs>
</svg>
