<svg width="71" height="45" viewBox="0 0 71 45" fill="none" xmlns="http://www.w3.org/2000/svg">
<path d="M46.8421 8.78943H48.4737C50.2046 8.78943 51.8646 9.47702 53.0885 10.7009C54.3124 11.9249 55 13.5849 55 15.3157C55 17.0466 54.3124 18.7066 53.0885 19.9305C51.8646 21.1545 50.2046 21.8421 48.4737 21.8421H46.8421" stroke="black" strokeWidth="2" strokeLinecap="round" strokeLinejoin="round"/>
<path d="M24 8.78943H46.8421V23.4736C46.8421 25.2045 46.1545 26.8645 44.9306 28.0884C43.7067 29.3124 42.0467 30 40.3158 30H30.5263C28.7954 30 27.1354 29.3124 25.9115 28.0884C24.6876 26.8645 24 25.2045 24 23.4736V8.78943Z" stroke="black" strokeWidth="2" strokeLinecap="round" strokeLinejoin="round"/>
<path d="M28.8947 1V4.26316" stroke="black" strokeWidth="2" strokeLinecap="round" strokeLinejoin="round"/>
<path d="M35 1V4.26316" stroke="black" strokeWidth="2" strokeLinecap="round" strokeLinejoin="round"/>
<path d="M41 1V4.26316" stroke="black" strokeWidth="2" strokeLinecap="round" strokeLinejoin="round"/>
<path d="M28.8594 44.1025C28.1465 44.1025 27.5508 43.9463 27.0723 43.6338C26.597 43.3213 26.2389 42.8932 25.998 42.3496C25.7604 41.806 25.6416 41.1891 25.6416 40.499V40.3965C25.6416 39.6999 25.7669 39.0814 26.0176 38.541C26.2682 37.9974 26.6279 37.5693 27.0967 37.2568C27.5654 36.9443 28.1253 36.7881 28.7764 36.7881C29.2354 36.7881 29.6553 36.8597 30.0361 37.0029C30.417 37.1462 30.7327 37.3285 30.9834 37.5498V39.083H30.2168L30.1143 37.96C30.0101 37.8786 29.8896 37.8102 29.7529 37.7549C29.6195 37.6995 29.4697 37.6572 29.3037 37.6279C29.141 37.5986 28.9635 37.584 28.7715 37.584C28.306 37.584 27.9121 37.7044 27.5898 37.9453C27.2676 38.1829 27.0234 38.5117 26.8574 38.9316C26.6914 39.3516 26.6084 39.8366 26.6084 40.3867V40.499C26.6084 41.0947 26.6963 41.6042 26.8721 42.0273C27.0511 42.4473 27.3099 42.7679 27.6484 42.9893C27.9902 43.2106 28.4053 43.3213 28.8936 43.3213C29.1214 43.3213 29.3444 43.2936 29.5625 43.2383C29.7806 43.1829 29.9613 43.1113 30.1045 43.0234L30.2119 42.0322H30.9639V43.5752C30.6969 43.7412 30.3779 43.8714 30.0068 43.9658C29.6357 44.057 29.2533 44.1025 28.8594 44.1025ZM33.6201 44.1025C33.07 44.1025 32.6517 43.9691 32.3652 43.7021C32.0788 43.432 31.9355 43.0527 31.9355 42.5645C31.9355 42.2292 32.0267 41.9378 32.209 41.6904C32.3945 41.4398 32.6615 41.2461 33.0098 41.1094C33.3581 40.9694 33.7747 40.8994 34.2598 40.8994H35.2021V40.3818C35.2021 40.0628 35.1045 39.8154 34.9092 39.6396C34.7171 39.4639 34.4453 39.376 34.0938 39.376C33.8724 39.376 33.6803 39.4036 33.5176 39.459C33.3548 39.5111 33.2067 39.5843 33.0732 39.6787L32.9707 40.416H32.2285V39.2051C32.4661 39.013 32.7428 38.8682 33.0586 38.7705C33.3743 38.6696 33.7243 38.6191 34.1084 38.6191C34.7497 38.6191 35.2526 38.7721 35.6172 39.0781C35.9818 39.3841 36.1641 39.8219 36.1641 40.3916V42.9355C36.1641 43.0039 36.1641 43.0706 36.1641 43.1357C36.1673 43.2008 36.1722 43.266 36.1787 43.3311L36.6914 43.3848V44H35.3096C35.2803 43.8568 35.2575 43.7282 35.2412 43.6143C35.2249 43.5003 35.2135 43.3864 35.207 43.2725C35.0215 43.5101 34.7887 43.7087 34.5088 43.8682C34.2321 44.0244 33.9359 44.1025 33.6201 44.1025ZM33.7617 43.2969C34.0807 43.2969 34.3721 43.2204 34.6357 43.0674C34.8994 42.9144 35.0882 42.7305 35.2021 42.5156V41.5586H34.2256C33.7829 41.5586 33.4508 41.6644 33.2295 41.876C33.0081 42.0876 32.8975 42.3236 32.8975 42.584C32.8975 42.8151 32.9691 42.9925 33.1123 43.1162C33.2555 43.2367 33.472 43.2969 33.7617 43.2969ZM37.4189 44V43.3848L38.2148 43.248V39.4297H37.3896V38.7168H38.2148V38.0479C38.2148 37.4847 38.3613 37.0501 38.6543 36.7441C38.9505 36.4349 39.3623 36.2803 39.8896 36.2803C40.0003 36.2803 40.1191 36.29 40.2461 36.3096C40.3763 36.3258 40.5098 36.3503 40.6465 36.3828L40.5293 37.1152C40.4707 37.1022 40.391 37.0908 40.29 37.0811C40.1924 37.0713 40.0996 37.0664 40.0117 37.0664C39.7285 37.0664 39.5186 37.151 39.3818 37.3203C39.2451 37.4863 39.1768 37.7288 39.1768 38.0479V38.7168H40.3291V39.4297H39.1768V43.248L40.085 43.3848V44H37.4189ZM43.3418 44.1025C42.8535 44.1025 42.4287 43.9919 42.0674 43.7705C41.7061 43.5459 41.4261 43.235 41.2275 42.8379C41.0322 42.4408 40.9346 41.9818 40.9346 41.4609V41.2461C40.9346 40.7448 41.0371 40.2972 41.2422 39.9033C41.4505 39.5062 41.7256 39.1937 42.0674 38.9658C42.4124 38.7347 42.7884 38.6191 43.1953 38.6191C43.6706 38.6191 44.0677 38.7168 44.3867 38.9121C44.709 39.1074 44.9515 39.3825 45.1143 39.7373C45.277 40.0889 45.3584 40.5039 45.3584 40.9824V41.583H41.9307L41.916 41.6074C41.9225 41.946 41.9811 42.2471 42.0918 42.5107C42.2057 42.7712 42.3685 42.9762 42.5801 43.126C42.7917 43.2757 43.0456 43.3506 43.3418 43.3506C43.6673 43.3506 43.9521 43.305 44.1963 43.2139C44.4437 43.1195 44.6569 42.9909 44.8359 42.8281L45.2119 43.4531C45.0231 43.6354 44.7725 43.79 44.46 43.917C44.1507 44.0407 43.778 44.1025 43.3418 44.1025ZM41.96 40.8311H44.3965V40.7041C44.3965 40.4502 44.3509 40.224 44.2598 40.0254C44.1719 39.8236 44.0384 39.6657 43.8594 39.5518C43.6836 39.4346 43.4622 39.376 43.1953 39.376C42.9805 39.376 42.7852 39.4395 42.6094 39.5664C42.4336 39.6901 42.2887 39.8594 42.1748 40.0742C42.0609 40.2891 41.986 40.5332 41.9502 40.8066L41.96 40.8311Z" fill="black"/>
</svg>


