<svg width="57" height="45" viewBox="0 0 57 45" fill="none" xmlns="http://www.w3.org/2000/svg">
<path d="M20.1457 14.0773L26.5629 29.1163C26.6838 29.3784 26.8854 29.6019 27.1427 29.759C27.4 29.9161 27.7016 29.9999 28.01 29.9999C28.3184 29.9999 28.62 29.9161 28.8772 29.759C29.1345 29.6019 29.3361 29.3784 29.457 29.1163L35.8743 14.0773" stroke="black" stroke-width="2" stroke-linecap="round" stroke-linejoin="round"/>
<path d="M35.8743 8.26523C35.8743 6.33837 35.0457 4.49043 33.5709 3.12794C32.096 1.76544 30.0957 1 28.01 1C25.9242 1 23.9239 1.76544 22.4491 3.12794C20.9742 4.49043 20.1457 6.33837 20.1457 8.26523" stroke="black" stroke-width="2" stroke-linecap="round" stroke-linejoin="round"/>
<path d="M35.8743 8.26489C36.7086 8.26489 37.5087 8.57107 38.0986 9.11607C38.6886 9.66106 39.02 10.4002 39.02 11.171C39.02 11.9417 38.6886 12.6809 38.0986 13.2259C37.5087 13.7709 36.7086 14.0771 35.8743 14.0771H20.1457C19.3114 14.0771 18.5113 13.7709 17.9214 13.2259C17.3314 12.6809 17 11.9417 17 11.171C17 10.4002 17.3314 9.66106 17.9214 9.11607C18.5113 8.57107 19.3114 8.26489 20.1457 8.26489" stroke="black" stroke-width="2" stroke-linecap="round" stroke-linejoin="round"/>
<path d="M21.6201 44V43.3848L22.416 43.248V37.6475L21.6201 37.5107V36.8906H26.8838V38.5996H26.1123L26.0049 37.6328H23.3779V39.9473H26V40.7041H23.3779V43.2773H26.1611L26.2686 42.2959H27.0352V44H21.6201ZM27.9287 44V43.3848L28.7246 43.248V39.4736L27.9287 39.3369V38.7168H29.6865V43.248L30.4824 43.3848V44H27.9287ZM28.6758 37.4131V36.3828H29.6865V37.4131H28.6758ZM33.2852 44.1025C32.9303 44.1025 32.5983 44.0667 32.2891 43.9951C31.9798 43.9235 31.651 43.8128 31.3027 43.6631L31.293 42.4082H32.0205L32.2012 43.165C32.3835 43.2399 32.5592 43.2952 32.7285 43.3311C32.901 43.3636 33.0866 43.3799 33.2852 43.3799C33.6758 43.3799 33.9557 43.305 34.125 43.1553C34.2943 43.0055 34.3789 42.82 34.3789 42.5986C34.3789 42.3903 34.2926 42.2145 34.1201 42.0713C33.9508 41.9248 33.6416 41.8011 33.1924 41.7002C32.5544 41.5537 32.084 41.3584 31.7812 41.1143C31.4818 40.8669 31.332 40.5381 31.332 40.1279C31.332 39.8415 31.415 39.5859 31.5811 39.3613C31.7471 39.1335 31.9782 38.9528 32.2744 38.8193C32.5706 38.6859 32.9157 38.6191 33.3096 38.6191C33.71 38.6191 34.0518 38.6647 34.335 38.7559C34.6214 38.847 34.8704 38.9691 35.082 39.1221L35.1309 40.3281H34.4082L34.252 39.625C34.138 39.5404 34.0029 39.4753 33.8467 39.4297C33.6904 39.3841 33.5114 39.3613 33.3096 39.3613C33.0101 39.3613 32.766 39.4313 32.5771 39.5713C32.3916 39.7113 32.2988 39.887 32.2988 40.0986C32.2988 40.2223 32.3249 40.3298 32.377 40.4209C32.4323 40.512 32.5365 40.5951 32.6895 40.6699C32.8424 40.7415 33.0671 40.8132 33.3633 40.8848C34.099 41.0573 34.6117 41.277 34.9014 41.5439C35.1943 41.8109 35.3408 42.1396 35.3408 42.5303C35.3408 42.9762 35.1748 43.3506 34.8428 43.6533C34.514 43.9528 33.9948 44.1025 33.2852 44.1025Z" fill="black"/>
</svg>
