<svg width="71" height="44" viewBox="0 0 71 44" fill="none" xmlns="http://www.w3.org/2000/svg">
<path d="M29.4444 8.88889C31.3468 8.88889 32.8889 7.34676 32.8889 5.44444C32.8889 3.54213 31.3468 2 29.4444 2C27.5421 2 26 3.54213 26 5.44444C26 7.34676 27.5421 8.88889 29.4444 8.88889Z" stroke="black" strokeWidth="2" strokeLinecap="round" strokeLinejoin="round"/>
<path d="M27.7667 8.35L21 13V26.5C21 27.4 21.6444 28 22.6111 28H48.3889C49.3556 28 50 27.4 50 26.5V13C50 10 45.1667 4 38.7222 1L32.9222 4.9" stroke="black" strokeWidth="2" strokeLinecap="round" strokeLinejoin="round"/>
<path d="M43.3055 14.5H22.3055" stroke="black" strokeWidth="2" strokeLinecap="round" strokeLinejoin="round"/>
<path d="M43.3055 21.3889H22.3055" stroke="black" strokeWidth="2" strokeLinecap="round" strokeLinejoin="round"/>
<path d="M19.2842 39.9443L18.7715 39.3486L22.1455 35.6035L22.165 35.5791L21.6328 35.5107V34.8906H23.9131V35.5107L23.2441 35.6328L19.2842 39.9443ZM17.5947 42V41.3848L18.3906 41.248V35.6475L17.5947 35.5107V34.8906H20.1484V35.5107L19.3525 35.6475V41.248L20.1484 41.3848V42H17.5947ZM21.7939 42V41.3848L22.3799 41.3164L22.375 41.3115L20.4072 38.582L20.9443 37.8252L23.5127 41.2627L24.167 41.3848V42H21.7939ZM27.1016 42.1025C26.5286 42.1025 26.0811 41.9186 25.7588 41.5508C25.4365 41.1829 25.2754 40.61 25.2754 39.832V37.4736L24.6699 37.3369V36.7168H25.2754H26.2373V39.8418C26.2373 40.4049 26.3203 40.7923 26.4863 41.0039C26.6523 41.2155 26.9111 41.3213 27.2627 41.3213C27.6045 41.3213 27.8861 41.2529 28.1074 41.1162C28.332 40.9762 28.5013 40.7793 28.6152 40.5254V37.4736L27.9072 37.3369V36.7168H28.6152H29.5771V41.248L30.1826 41.3848V42H28.7129L28.6494 41.2188C28.4834 41.502 28.2686 41.7201 28.0049 41.873C27.7445 42.026 27.4434 42.1025 27.1016 42.1025ZM33.249 42.1025C32.7705 42.1025 32.3538 41.9919 31.999 41.7705C31.6442 41.5459 31.3691 41.235 31.1738 40.8379C30.9785 40.4408 30.8809 39.9818 30.8809 39.4609V39.2559C30.8809 38.7546 30.9753 38.3053 31.1641 37.9082C31.3529 37.5111 31.6247 37.1969 31.9795 36.9658C32.3343 36.7347 32.7575 36.6191 33.249 36.6191C33.6755 36.6191 34.0482 36.6891 34.3672 36.8291C34.6895 36.9691 34.9596 37.1611 35.1777 37.4053L35.2021 38.6748H34.4502L34.2842 37.752C34.1735 37.638 34.0352 37.5469 33.8691 37.4785C33.7031 37.4102 33.5078 37.376 33.2832 37.376C32.9967 37.376 32.7445 37.4606 32.5264 37.6299C32.3115 37.7992 32.1439 38.0254 32.0234 38.3086C31.903 38.5918 31.8428 38.9076 31.8428 39.2559V39.4609C31.8428 39.8451 31.8981 40.1787 32.0088 40.4619C32.1227 40.7451 32.2839 40.9648 32.4922 41.1211C32.7038 41.2741 32.9544 41.3506 33.2441 41.3506C33.5697 41.3506 33.8398 41.2611 34.0547 41.082C34.2695 40.903 34.4014 40.6572 34.4502 40.3447H35.3145L35.3242 40.374C35.3079 40.6768 35.2184 40.96 35.0557 41.2236C34.8929 41.4873 34.6602 41.7005 34.3574 41.8633C34.0579 42.0228 33.6885 42.1025 33.249 42.1025ZM35.9541 42V41.3848L36.75 41.248V35.1396L35.9541 35.0029V34.3828H37.7119V37.4199C37.8942 37.166 38.1172 36.9691 38.3809 36.8291C38.6445 36.6891 38.9375 36.6191 39.2598 36.6191C39.8262 36.6191 40.2656 36.7884 40.5781 37.127C40.8906 37.4655 41.0469 37.9863 41.0469 38.6895V41.248L41.8428 41.3848V42H39.2891V41.3848L40.085 41.248V38.6797C40.085 38.2435 39.9906 37.9212 39.8018 37.7129C39.6162 37.5046 39.3379 37.4004 38.9668 37.4004C38.7031 37.4004 38.4622 37.4639 38.2441 37.5908C38.0293 37.7145 37.8519 37.8838 37.7119 38.0986V41.248L38.5078 41.3848V42H35.9541ZM44.8311 42.1025C44.3428 42.1025 43.918 41.9919 43.5566 41.7705C43.1953 41.5459 42.9154 41.235 42.7168 40.8379C42.5215 40.4408 42.4238 39.9818 42.4238 39.4609V39.2461C42.4238 38.7448 42.5264 38.2972 42.7314 37.9033C42.9398 37.5062 43.2148 37.1937 43.5566 36.9658C43.9017 36.7347 44.2777 36.6191 44.6846 36.6191C45.1598 36.6191 45.557 36.7168 45.876 36.9121C46.1982 37.1074 46.4408 37.3825 46.6035 37.7373C46.7663 38.0889 46.8477 38.5039 46.8477 38.9824V39.583H43.4199L43.4053 39.6074C43.4118 39.946 43.4704 40.2471 43.5811 40.5107C43.695 40.7712 43.8577 40.9762 44.0693 41.126C44.2809 41.2757 44.5348 41.3506 44.8311 41.3506C45.1566 41.3506 45.4414 41.305 45.6855 41.2139C45.9329 41.1195 46.1462 40.9909 46.3252 40.8281L46.7012 41.4531C46.5124 41.6354 46.2617 41.79 45.9492 41.917C45.64 42.0407 45.2673 42.1025 44.8311 42.1025ZM43.4492 38.8311H45.8857V38.7041C45.8857 38.4502 45.8402 38.224 45.749 38.0254C45.6611 37.8236 45.5277 37.6657 45.3486 37.5518C45.1729 37.4346 44.9515 37.376 44.6846 37.376C44.4697 37.376 44.2744 37.4395 44.0986 37.5664C43.9229 37.6901 43.778 37.8594 43.6641 38.0742C43.5501 38.2891 43.4753 38.5332 43.4395 38.8066L43.4492 38.8311ZM47.5996 42V41.3848L48.3955 41.248V37.4736L47.5996 37.3369V36.7168H49.2549L49.3232 37.5029C49.499 37.223 49.7188 37.0065 49.9824 36.8535C50.2493 36.6973 50.5521 36.6191 50.8906 36.6191C51.4603 36.6191 51.9014 36.7868 52.2139 37.1221C52.5264 37.4541 52.6826 37.9684 52.6826 38.665V41.248L53.4785 41.3848V42H50.9248V41.3848L51.7207 41.248V38.6846C51.7207 38.2191 51.6279 37.8887 51.4424 37.6934C51.2601 37.498 50.9801 37.4004 50.6025 37.4004C50.3258 37.4004 50.0801 37.4671 49.8652 37.6006C49.6536 37.734 49.4844 37.9163 49.3574 38.1475V41.248L50.1533 41.3848V42H47.5996Z" fill="black"/>
</svg>
