<svg width="71" height="44" viewBox="0 0 71 44" fill="none" xmlns="http://www.w3.org/2000/svg">
<path d="M23.875 2.58325V11.6249C23.875 13.0458 25.0375 14.2083 26.4583 14.2083H31.625C32.3101 14.2083 32.9672 13.9361 33.4517 13.4516C33.9362 12.9671 34.2083 12.3101 34.2083 11.6249V2.58325" stroke="black" stroke-width="2" stroke-linecap="round" stroke-linejoin="round"/>
<path d="M29.0417 2.58325V28.4166" stroke="black" stroke-width="2" stroke-linecap="round" stroke-linejoin="round"/>
<path d="M47.125 19.3749V2.58325C45.4121 2.58325 43.7694 3.26368 42.5583 4.47485C41.3471 5.68603 40.6667 7.32873 40.6667 9.04159V16.7916C40.6667 18.2124 41.8292 19.3749 43.25 19.3749H47.125ZM47.125 19.3749V28.4166" stroke="black" stroke-width="2" stroke-linecap="round" stroke-linejoin="round"/>
<path d="M10.0117 43V42.3848L10.8076 42.248V36.6475L10.0117 36.5107V35.8955H13.1807C13.6982 35.8955 14.1344 35.9736 14.4893 36.1299C14.8473 36.2829 15.1191 36.5059 15.3047 36.7988C15.4902 37.0918 15.583 37.4499 15.583 37.873C15.583 38.2897 15.4919 38.6396 15.3096 38.9229C15.1305 39.2061 14.875 39.4209 14.543 39.5674C14.2109 39.7106 13.8171 39.7871 13.3613 39.7969L11.7695 39.8262V42.248L12.5654 42.3848V43H10.0117ZM14.7041 43L13.1221 39.4502L14.084 39.4404L15.3975 42.2822L15.8906 42.3701V43H14.7041ZM11.7695 39.0693H13.083C13.6201 39.0693 14.0107 38.9668 14.2549 38.7617C14.499 38.5566 14.6211 38.2572 14.6211 37.8633C14.6211 37.4889 14.5039 37.1927 14.2695 36.9746C14.0352 36.7565 13.6722 36.6475 13.1807 36.6475H11.7695V39.0693ZM19.1523 43.1025C18.6641 43.1025 18.2393 42.9919 17.8779 42.7705C17.5166 42.5459 17.2367 42.235 17.0381 41.8379C16.8428 41.4408 16.7451 40.9818 16.7451 40.4609V40.2461C16.7451 39.7448 16.8477 39.2972 17.0527 38.9033C17.2611 38.5062 17.5361 38.1937 17.8779 37.9658C18.223 37.7347 18.599 37.6191 19.0059 37.6191C19.4811 37.6191 19.8783 37.7168 20.1973 37.9121C20.5195 38.1074 20.762 38.3825 20.9248 38.7373C21.0876 39.0889 21.1689 39.5039 21.1689 39.9824V40.583H17.7412L17.7266 40.6074C17.7331 40.946 17.7917 41.2471 17.9023 41.5107C18.0163 41.7712 18.179 41.9762 18.3906 42.126C18.6022 42.2757 18.8561 42.3506 19.1523 42.3506C19.4779 42.3506 19.7627 42.305 20.0068 42.2139C20.2542 42.1195 20.4674 41.9909 20.6465 41.8281L21.0225 42.4531C20.8337 42.6354 20.583 42.79 20.2705 42.917C19.9613 43.0407 19.5885 43.1025 19.1523 43.1025ZM17.7705 39.8311H20.207V39.7041C20.207 39.4502 20.1615 39.224 20.0703 39.0254C19.9824 38.8236 19.849 38.6657 19.6699 38.5518C19.4941 38.4346 19.2728 38.376 19.0059 38.376C18.791 38.376 18.5957 38.4395 18.4199 38.5664C18.2441 38.6901 18.0993 38.8594 17.9854 39.0742C17.8714 39.2891 17.7965 39.5332 17.7607 39.8066L17.7705 39.8311ZM24.0889 43.1025C23.734 43.1025 23.402 43.0667 23.0928 42.9951C22.7835 42.9235 22.4548 42.8128 22.1064 42.6631L22.0967 41.4082H22.8242L23.0049 42.165C23.1872 42.2399 23.363 42.2952 23.5322 42.3311C23.7048 42.3636 23.8903 42.3799 24.0889 42.3799C24.4795 42.3799 24.7594 42.305 24.9287 42.1553C25.098 42.0055 25.1826 41.82 25.1826 41.5986C25.1826 41.3903 25.0964 41.2145 24.9238 41.0713C24.7546 40.9248 24.4453 40.8011 23.9961 40.7002C23.3581 40.5537 22.8877 40.3584 22.585 40.1143C22.2855 39.8669 22.1357 39.5381 22.1357 39.1279C22.1357 38.8415 22.2188 38.5859 22.3848 38.3613C22.5508 38.1335 22.7819 37.9528 23.0781 37.8193C23.3743 37.6859 23.7194 37.6191 24.1133 37.6191C24.5137 37.6191 24.8555 37.6647 25.1387 37.7559C25.4251 37.847 25.6742 37.9691 25.8857 38.1221L25.9346 39.3281H25.2119L25.0557 38.625C24.9417 38.5404 24.8066 38.4753 24.6504 38.4297C24.4941 38.3841 24.3151 38.3613 24.1133 38.3613C23.8138 38.3613 23.5697 38.4313 23.3809 38.5713C23.1953 38.7113 23.1025 38.887 23.1025 39.0986C23.1025 39.2223 23.1286 39.3298 23.1807 39.4209C23.236 39.512 23.3402 39.5951 23.4932 39.6699C23.6462 39.7415 23.8708 39.8132 24.167 39.8848C24.9027 40.0573 25.4154 40.277 25.7051 40.5439C25.998 40.8109 26.1445 41.1396 26.1445 41.5303C26.1445 41.9762 25.9785 42.3506 25.6465 42.6533C25.3177 42.9528 24.7985 43.1025 24.0889 43.1025ZM28.8057 43.083C28.415 43.083 28.1042 42.9691 27.873 42.7412C27.6452 42.5101 27.5312 42.1423 27.5312 41.6377V38.4297H26.6963V37.7168H27.5312V36.4424H28.4932V37.7168H29.6406V38.4297H28.4932V41.6377C28.4932 41.8916 28.5436 42.0788 28.6445 42.1992C28.7454 42.3197 28.8805 42.3799 29.0498 42.3799C29.1637 42.3799 29.2907 42.3701 29.4307 42.3506C29.5706 42.3278 29.6797 42.3083 29.7578 42.292L29.8896 42.9219C29.7497 42.9642 29.5771 43.0016 29.3721 43.0342C29.1702 43.0667 28.9814 43.083 28.8057 43.083ZM32.2139 43.1025C31.6637 43.1025 31.2454 42.9691 30.959 42.7021C30.6725 42.432 30.5293 42.0527 30.5293 41.5645C30.5293 41.2292 30.6204 40.9378 30.8027 40.6904C30.9883 40.4398 31.2552 40.2461 31.6035 40.1094C31.9518 39.9694 32.3685 39.8994 32.8535 39.8994H33.7959V39.3818C33.7959 39.0628 33.6982 38.8154 33.5029 38.6396C33.3109 38.4639 33.0391 38.376 32.6875 38.376C32.4661 38.376 32.2741 38.4036 32.1113 38.459C31.9486 38.5111 31.8005 38.5843 31.667 38.6787L31.5645 39.416H30.8223V38.2051C31.0599 38.013 31.3366 37.8682 31.6523 37.7705C31.9681 37.6696 32.318 37.6191 32.7021 37.6191C33.3434 37.6191 33.8464 37.7721 34.2109 38.0781C34.5755 38.3841 34.7578 38.8219 34.7578 39.3916V41.9355C34.7578 42.0039 34.7578 42.0706 34.7578 42.1357C34.7611 42.2008 34.766 42.266 34.7725 42.3311L35.2852 42.3848V43H33.9033C33.874 42.8568 33.8512 42.7282 33.835 42.6143C33.8187 42.5003 33.8073 42.3864 33.8008 42.2725C33.6152 42.5101 33.3825 42.7087 33.1025 42.8682C32.8258 43.0244 32.5296 43.1025 32.2139 43.1025ZM32.3555 42.2969C32.6745 42.2969 32.9658 42.2204 33.2295 42.0674C33.4932 41.9144 33.682 41.7305 33.7959 41.5156V40.5586H32.8193C32.3766 40.5586 32.0446 40.6644 31.8232 40.876C31.6019 41.0876 31.4912 41.3236 31.4912 41.584C31.4912 41.8151 31.5628 41.9925 31.7061 42.1162C31.8493 42.2367 32.0658 42.2969 32.3555 42.2969ZM38.3564 43.1025C37.7835 43.1025 37.3359 42.9186 37.0137 42.5508C36.6914 42.1829 36.5303 41.61 36.5303 40.832V38.4736L35.9248 38.3369V37.7168H36.5303H37.4922V40.8418C37.4922 41.4049 37.5752 41.7923 37.7412 42.0039C37.9072 42.2155 38.166 42.3213 38.5176 42.3213C38.8594 42.3213 39.141 42.2529 39.3623 42.1162C39.5869 41.9762 39.7562 41.7793 39.8701 41.5254V38.4736L39.1621 38.3369V37.7168H39.8701H40.832V42.248L41.4375 42.3848V43H39.9678L39.9043 42.2188C39.7383 42.502 39.5234 42.7201 39.2598 42.873C38.9993 43.026 38.6982 43.1025 38.3564 43.1025ZM42.1064 43V42.3848L42.9023 42.248V38.4736L42.1064 38.3369V37.7168H43.7617L43.8447 38.3906L43.8545 38.4834C44.0042 38.2132 44.1882 38.0016 44.4062 37.8486C44.6276 37.6956 44.8799 37.6191 45.1631 37.6191C45.264 37.6191 45.3665 37.6289 45.4707 37.6484C45.5781 37.6647 45.6546 37.681 45.7002 37.6973L45.5732 38.5908L44.9043 38.5518C44.6504 38.5355 44.4372 38.5941 44.2646 38.7275C44.0921 38.8577 43.9587 39.0335 43.8643 39.2549V42.248L44.6602 42.3848V43H42.1064ZM47.9951 43.1025C47.445 43.1025 47.0267 42.9691 46.7402 42.7021C46.4538 42.432 46.3105 42.0527 46.3105 41.5645C46.3105 41.2292 46.4017 40.9378 46.584 40.6904C46.7695 40.4398 47.0365 40.2461 47.3848 40.1094C47.7331 39.9694 48.1497 39.8994 48.6348 39.8994H49.5771V39.3818C49.5771 39.0628 49.4795 38.8154 49.2842 38.6396C49.0921 38.4639 48.8203 38.376 48.4688 38.376C48.2474 38.376 48.0553 38.4036 47.8926 38.459C47.7298 38.5111 47.5817 38.5843 47.4482 38.6787L47.3457 39.416H46.6035V38.2051C46.8411 38.013 47.1178 37.8682 47.4336 37.7705C47.7493 37.6696 48.0993 37.6191 48.4834 37.6191C49.1247 37.6191 49.6276 37.7721 49.9922 38.0781C50.3568 38.3841 50.5391 38.8219 50.5391 39.3916V41.9355C50.5391 42.0039 50.5391 42.0706 50.5391 42.1357C50.5423 42.2008 50.5472 42.266 50.5537 42.3311L51.0664 42.3848V43H49.6846C49.6553 42.8568 49.6325 42.7282 49.6162 42.6143C49.5999 42.5003 49.5885 42.3864 49.582 42.2725C49.3965 42.5101 49.1637 42.7087 48.8838 42.8682C48.6071 43.0244 48.3109 43.1025 47.9951 43.1025ZM48.1367 42.2969C48.4557 42.2969 48.7471 42.2204 49.0107 42.0674C49.2744 41.9144 49.4632 41.7305 49.5771 41.5156V40.5586H48.6006C48.1579 40.5586 47.8258 40.6644 47.6045 40.876C47.3831 41.0876 47.2725 41.3236 47.2725 41.584C47.2725 41.8151 47.3441 41.9925 47.4873 42.1162C47.6305 42.2367 47.847 42.2969 48.1367 42.2969ZM51.8135 43V42.3848L52.6094 42.248V38.4736L51.8135 38.3369V37.7168H53.4688L53.5371 38.5029C53.7129 38.223 53.9326 38.0065 54.1963 37.8535C54.4632 37.6973 54.766 37.6191 55.1045 37.6191C55.6742 37.6191 56.1152 37.7868 56.4277 38.1221C56.7402 38.4541 56.8965 38.9684 56.8965 39.665V42.248L57.6924 42.3848V43H55.1387V42.3848L55.9346 42.248V39.6846C55.9346 39.2191 55.8418 38.8887 55.6562 38.6934C55.474 38.498 55.194 38.4004 54.8164 38.4004C54.5397 38.4004 54.2939 38.4671 54.0791 38.6006C53.8675 38.734 53.6982 38.9163 53.5713 39.1475V42.248L54.3672 42.3848V43H51.8135ZM60.0459 43.083C59.6553 43.083 59.3444 42.9691 59.1133 42.7412C58.8854 42.5101 58.7715 42.1423 58.7715 41.6377V38.4297H57.9365V37.7168H58.7715V36.4424H59.7334V37.7168H60.8809V38.4297H59.7334V41.6377C59.7334 41.8916 59.7839 42.0788 59.8848 42.1992C59.9857 42.3197 60.1208 42.3799 60.29 42.3799C60.404 42.3799 60.5309 42.3701 60.6709 42.3506C60.8109 42.3278 60.9199 42.3083 60.998 42.292L61.1299 42.9219C60.9899 42.9642 60.8174 43.0016 60.6123 43.0342C60.4105 43.0667 60.2217 43.083 60.0459 43.083Z" fill="black"/>
</svg>
