<svg width="71" height="44" viewBox="0 0 71 44" fill="none" xmlns="http://www.w3.org/2000/svg">
<path d="M39.375 14.2084H39.3879" stroke="black" strokeWidth="2" strokeLinecap="round" strokeLinejoin="round"/>
<path d="M34.2083 19.375H34.2212" stroke="black" strokeWidth="2" strokeLinecap="round" strokeLinejoin="round"/>
<path d="M40.6667 20.6666H40.6796" stroke="black" strokeWidth="2" strokeLinecap="round" strokeLinejoin="round"/>
<path d="M22.5833 20.6666L48.4166 28.4166L40.6666 2.58325C36.3423 3.76886 32.401 6.05962 29.2303 9.23026C26.0597 12.4009 23.7689 16.3422 22.5833 20.6666Z" stroke="black" strokeWidth="2" strokeLinecap="round" strokeLinejoin="round"/>
<path d="M27.3754 22.1004C28.4236 18.6212 30.3169 15.4556 32.8863 12.8863C35.4557 10.3169 38.6212 8.42358 42.1004 7.37537" stroke="black" strokeWidth="2" strokeLinecap="round" strokeLinejoin="round"/>
<path opacity="0.71" d="M21.2227 43.1025C20.7897 43.1025 20.373 43.0391 19.9727 42.9121C19.5723 42.7852 19.1898 42.5898 18.8252 42.3262V40.8076H19.5723L19.7334 41.9258C19.945 42.056 20.1745 42.1569 20.4219 42.2285C20.6693 42.3001 20.9362 42.3359 21.2227 42.3359C21.5482 42.3359 21.8232 42.2871 22.0479 42.1895C22.2757 42.0885 22.4499 41.9502 22.5703 41.7744C22.6908 41.5986 22.751 41.3936 22.751 41.1592C22.751 40.9411 22.6989 40.749 22.5947 40.583C22.4906 40.417 22.318 40.2721 22.0771 40.1484C21.8395 40.0215 21.514 39.9108 21.1006 39.8164C20.6123 39.7025 20.1989 39.5511 19.8604 39.3623C19.5251 39.1702 19.2695 38.9391 19.0938 38.6689C18.9212 38.3955 18.835 38.083 18.835 37.7314C18.835 37.3604 18.9326 37.0283 19.1279 36.7354C19.3265 36.4424 19.6016 36.2113 19.9531 36.042C20.3047 35.8727 20.7148 35.7881 21.1836 35.7881C21.6816 35.7881 22.1211 35.8646 22.502 36.0176C22.8861 36.1673 23.2018 36.3496 23.4492 36.5645V37.9854H22.7021L22.541 36.9697C22.3945 36.8525 22.2122 36.7549 21.9941 36.6768C21.776 36.5986 21.5059 36.5596 21.1836 36.5596C20.9102 36.5596 20.6693 36.6084 20.4609 36.7061C20.2526 36.8005 20.0898 36.9339 19.9727 37.1064C19.8555 37.279 19.7969 37.4824 19.7969 37.7168C19.7969 37.9219 19.849 38.1009 19.9531 38.2539C20.0605 38.4069 20.2331 38.542 20.4707 38.6592C20.7116 38.7731 21.0322 38.8805 21.4326 38.9814C22.1813 39.167 22.7477 39.4421 23.1318 39.8066C23.5192 40.168 23.7129 40.6156 23.7129 41.1494C23.7129 41.5303 23.6104 41.8688 23.4053 42.165C23.2002 42.458 22.9105 42.6875 22.5361 42.8535C22.165 43.0195 21.7272 43.1025 21.2227 43.1025ZM24.5137 43V42.3848L25.3096 42.248V38.4736L24.5137 38.3369V37.7168H26.1689L26.2373 38.5029C26.4131 38.223 26.6328 38.0065 26.8965 37.8535C27.1634 37.6973 27.4661 37.6191 27.8047 37.6191C28.3743 37.6191 28.8154 37.7868 29.1279 38.1221C29.4404 38.4541 29.5967 38.9684 29.5967 39.665V42.248L30.3926 42.3848V43H27.8389V42.3848L28.6348 42.248V39.6846C28.6348 39.2191 28.542 38.8887 28.3564 38.6934C28.1742 38.498 27.8942 38.4004 27.5166 38.4004C27.2399 38.4004 26.9941 38.4671 26.7793 38.6006C26.5677 38.734 26.3984 38.9163 26.2715 39.1475V42.248L27.0674 42.3848V43H24.5137ZM32.7852 43.1025C32.235 43.1025 31.8167 42.9691 31.5303 42.7021C31.2438 42.432 31.1006 42.0527 31.1006 41.5645C31.1006 41.2292 31.1917 40.9378 31.374 40.6904C31.5596 40.4398 31.8265 40.2461 32.1748 40.1094C32.5231 39.9694 32.9398 39.8994 33.4248 39.8994H34.3672V39.3818C34.3672 39.0628 34.2695 38.8154 34.0742 38.6396C33.8822 38.4639 33.6104 38.376 33.2588 38.376C33.0374 38.376 32.8454 38.4036 32.6826 38.459C32.5199 38.5111 32.3717 38.5843 32.2383 38.6787L32.1357 39.416H31.3936V38.2051C31.6312 38.013 31.9079 37.8682 32.2236 37.7705C32.5394 37.6696 32.8893 37.6191 33.2734 37.6191C33.9147 37.6191 34.4176 37.7721 34.7822 38.0781C35.1468 38.3841 35.3291 38.8219 35.3291 39.3916V41.9355C35.3291 42.0039 35.3291 42.0706 35.3291 42.1357C35.3324 42.2008 35.3372 42.266 35.3438 42.3311L35.8564 42.3848V43H34.4746C34.4453 42.8568 34.4225 42.7282 34.4062 42.6143C34.39 42.5003 34.3786 42.3864 34.3721 42.2725C34.1865 42.5101 33.9538 42.7087 33.6738 42.8682C33.3971 43.0244 33.1009 43.1025 32.7852 43.1025ZM32.9268 42.2969C33.2458 42.2969 33.5371 42.2204 33.8008 42.0674C34.0645 41.9144 34.2533 41.7305 34.3672 41.5156V40.5586H33.3906C32.9479 40.5586 32.6159 40.6644 32.3945 40.876C32.1732 41.0876 32.0625 41.3236 32.0625 41.584C32.0625 41.8151 32.1341 41.9925 32.2773 42.1162C32.4206 42.2367 32.637 42.2969 32.9268 42.2969ZM38.9912 43.1025C38.5127 43.1025 38.096 42.9919 37.7412 42.7705C37.3864 42.5459 37.1113 42.235 36.916 41.8379C36.7207 41.4408 36.623 40.9818 36.623 40.4609V40.2559C36.623 39.7546 36.7174 39.3053 36.9062 38.9082C37.0951 38.5111 37.3669 38.1969 37.7217 37.9658C38.0765 37.7347 38.4997 37.6191 38.9912 37.6191C39.4176 37.6191 39.7904 37.6891 40.1094 37.8291C40.4316 37.9691 40.7018 38.1611 40.9199 38.4053L40.9443 39.6748H40.1924L40.0264 38.752C39.9157 38.638 39.7773 38.5469 39.6113 38.4785C39.4453 38.4102 39.25 38.376 39.0254 38.376C38.7389 38.376 38.4867 38.4606 38.2686 38.6299C38.0537 38.7992 37.8861 39.0254 37.7656 39.3086C37.6452 39.5918 37.585 39.9076 37.585 40.2559V40.4609C37.585 40.8451 37.6403 41.1787 37.751 41.4619C37.8649 41.7451 38.026 41.9648 38.2344 42.1211C38.446 42.2741 38.6966 42.3506 38.9863 42.3506C39.3118 42.3506 39.582 42.2611 39.7969 42.082C40.0117 41.903 40.1436 41.6572 40.1924 41.3447H41.0566L41.0664 41.374C41.0501 41.6768 40.9606 41.96 40.7979 42.2236C40.6351 42.4873 40.4023 42.7005 40.0996 42.8633C39.8001 43.0228 39.4307 43.1025 38.9912 43.1025ZM41.7695 43V42.3848L42.5654 42.248V36.1396L41.7695 36.0029V35.3828H43.5273V42.248L44.3232 42.3848V43H41.7695ZM45.1631 43V42.3848L45.7002 42.3213L45.6855 42.3018L44.1572 40.3291L44.6553 39.5625L46.7891 42.2676L47.5508 42.3848V43H45.1631ZM43.459 41.4717L43.1025 40.7148L45.3975 38.4297L45.4219 38.4004L44.8555 38.3369V37.7168H47.1309V38.3369L46.4521 38.4639L43.459 41.4717ZM50.2461 43.1025C49.8913 43.1025 49.5592 43.0667 49.25 42.9951C48.9408 42.9235 48.612 42.8128 48.2637 42.6631L48.2539 41.4082H48.9814L49.1621 42.165C49.3444 42.2399 49.5202 42.2952 49.6895 42.3311C49.862 42.3636 50.0475 42.3799 50.2461 42.3799C50.6367 42.3799 50.9167 42.305 51.0859 42.1553C51.2552 42.0055 51.3398 41.82 51.3398 41.5986C51.3398 41.3903 51.2536 41.2145 51.0811 41.0713C50.9118 40.9248 50.6025 40.8011 50.1533 40.7002C49.5153 40.5537 49.0449 40.3584 48.7422 40.1143C48.4427 39.8669 48.293 39.5381 48.293 39.1279C48.293 38.8415 48.376 38.5859 48.542 38.3613C48.708 38.1335 48.9391 37.9528 49.2354 37.8193C49.5316 37.6859 49.8766 37.6191 50.2705 37.6191C50.6709 37.6191 51.0127 37.6647 51.2959 37.7559C51.5824 37.847 51.8314 37.9691 52.043 38.1221L52.0918 39.3281H51.3691L51.2129 38.625C51.099 38.5404 50.9639 38.4753 50.8076 38.4297C50.6514 38.3841 50.4723 38.3613 50.2705 38.3613C49.971 38.3613 49.7269 38.4313 49.5381 38.5713C49.3525 38.7113 49.2598 38.887 49.2598 39.0986C49.2598 39.2223 49.2858 39.3298 49.3379 39.4209C49.3932 39.512 49.4974 39.5951 49.6504 39.6699C49.8034 39.7415 50.028 39.8132 50.3242 39.8848C51.0599 40.0573 51.5726 40.277 51.8623 40.5439C52.1553 40.8109 52.3018 41.1396 52.3018 41.5303C52.3018 41.9762 52.1357 42.3506 51.8037 42.6533C51.4749 42.9528 50.9557 43.1025 50.2461 43.1025Z" fill="black"/>
</svg>
