<svg width="43" height="43" viewBox="0 0 43 43" fill="none" xmlns="http://www.w3.org/2000/svg">
<path d="M19.45 1C18.3626 1 17.3198 1.43196 16.5509 2.20086C15.782 2.96976 15.35 4.01261 15.35 5.1V15.35H5.1C4.01261 15.35 2.96976 15.782 2.20086 16.5509C1.43196 17.3198 1 18.3626 1 19.45V23.55C1 25.805 2.845 27.65 5.1 27.65H15.35V37.9C15.35 40.155 17.195 42 19.45 42H23.55C24.6374 42 25.6802 41.568 26.4491 40.7991C27.218 40.0302 27.65 38.9874 27.65 37.9V27.65H37.9C38.9874 27.65 40.0302 27.218 40.7991 26.4491C41.568 25.6802 42 24.6374 42 23.55V19.45C42 18.3626 41.568 17.3198 40.7991 16.5509C40.0302 15.782 38.9874 15.35 37.9 15.35H27.65V5.1C27.65 4.01261 27.218 2.96976 26.4491 2.20086C25.6802 1.43196 24.6374 1 23.55 1H19.45Z" fill="white" stroke="white" strokeWidth="2" strokeLinecap="round" strokeLinejoin="round"/>
</svg>
