<svg width="256" height="256" viewBox="0 0 256 256" fill="none" xmlns="http://www.w3.org/2000/svg">
<rect width="256" height="256" fill="black"/>
<line x1="222.146" y1="39.157" x2="38.0851" y2="217.083" stroke="#987B59" stroke-width="6"/>
<path d="M72.5 79.5H193.5V163C193.5 184.815 175.815 202.5 154 202.5H112C90.1848 202.5 72.5 184.815 72.5 163V79.5Z" fill="#8AE9FD" stroke="#8AE9FD"/>
<path d="M4 222.799L40.8232 183.58C48.3839 175.528 61.0409 175.129 69.0935 182.69L71.2457 184.711C79.2983 192.271 79.697 204.928 72.1362 212.981L35.313 252.199L4 222.799Z" fill="#B97A00"/>
<path d="M213.074 29.4311C213.845 28.6407 215.111 28.6254 215.902 29.397L231.358 44.4855C232.149 45.2571 232.164 46.5233 231.392 47.3137L229.716 49.0311C228.944 49.8215 227.678 49.8367 226.887 49.0651L211.431 33.9767C210.641 33.2051 210.625 31.9389 211.397 31.1485L213.074 29.4311Z" fill="#987B59"/>
<path d="M99 39C99 37.3431 97.6569 36 96 36C94.3431 36 93 37.3431 93 39H99ZM93 39V64.6H99V39H93Z" fill="white"/>
<path d="M177 39C177 37.3431 175.657 36 174 36C172.343 36 171 37.3431 171 39H177ZM171 39V64.6H177V39H171Z" fill="white"/>
<path d="M138 39C138 37.3431 136.657 36 135 36C133.343 36 132 37.3431 132 39H138ZM132 39V64.6H138V39H132Z" fill="white"/>
<path d="M198 105H217.25C224.292 105 230 110.708 230 117.75V120C230 142.187 212.796 160.356 191 161.895V112C191 108.134 194.134 105 198 105Z" fill="black" stroke="#8AE9FD" stroke-width="6"/>
</svg>
